<svg xmlns="http://www.w3.org/2000/svg" width="114.153" height="36" viewBox="0 0 114.153 36"><g transform="translate(-688 68)" opacity="0.5"><path d="M7.92-12.6h2.34v8.136a6.118,6.118,0,0,1-.324,2.106A3.954,3.954,0,0,1,9.036-.9a3.474,3.474,0,0,1-1.4.846,5.837,5.837,0,0,1-1.818.27q-4.788,0-4.788-4.374V-12.6H3.492v7.956a4.984,4.984,0,0,0,.135,1.251,1.932,1.932,0,0,0,.423.828,1.6,1.6,0,0,0,.72.45,3.388,3.388,0,0,0,1.008.135,1.975,1.975,0,0,0,1.638-.63,3.266,3.266,0,0,0,.5-2.034Zm5.148,0h2.466V0H13.068Zm9.332,0h7.47v2.2h-5V-7.29h4.608v2.2H24.866V0H22.4Zm9.486,4.122a7.7,7.7,0,0,1,1.71-.513,11.021,11.021,0,0,1,2.07-.189,4.7,4.7,0,0,1,1.566.225,2.377,2.377,0,0,1,1,.639,2.381,2.381,0,0,1,.522.99,5.053,5.053,0,0,1,.153,1.3q0,.792-.054,1.593t-.063,1.575q-.009.774.045,1.5A5.66,5.66,0,0,0,39.1.018H37.2l-.378-1.242h-.09a3.2,3.2,0,0,1-1,.963,3.031,3.031,0,0,1-1.647.4,3.211,3.211,0,0,1-1.134-.189,2.455,2.455,0,0,1-.864-.54,2.46,2.46,0,0,1-.558-.828,2.77,2.77,0,0,1-.2-1.071A2.5,2.5,0,0,1,31.7-3.879,2.669,2.669,0,0,1,32.759-4.8a5.275,5.275,0,0,1,1.656-.486,11.735,11.735,0,0,1,2.151-.081,2.339,2.339,0,0,0-.144-1.449q-.27-.441-1.206-.441a8.222,8.222,0,0,0-1.485.144,5.43,5.43,0,0,0-1.287.378Zm2.97,6.7A1.8,1.8,0,0,0,35.972-2.1a2.2,2.2,0,0,0,.612-.675v-1.17a6.437,6.437,0,0,0-1.071-.018A3.908,3.908,0,0,0,34.6-3.8a1.528,1.528,0,0,0-.63.36.8.8,0,0,0-.234.594,1.022,1.022,0,0,0,.3.783A1.149,1.149,0,0,0,34.856-1.782ZM47.69-.558a3.911,3.911,0,0,1-1.305.6A6,6,0,0,1,44.81.252,4.375,4.375,0,0,1,42.983-.09a3.115,3.115,0,0,1-1.215-.963,3.971,3.971,0,0,1-.675-1.5A8.512,8.512,0,0,1,40.886-4.5a5.361,5.361,0,0,1,1.026-3.519A3.666,3.666,0,0,1,44.9-9.252a6.34,6.34,0,0,1,1.593.162,5.409,5.409,0,0,1,1.089.414l-.558,1.908a4.717,4.717,0,0,0-.819-.306,3.609,3.609,0,0,0-.927-.108,1.767,1.767,0,0,0-1.476.639A3.308,3.308,0,0,0,43.3-4.5a4.225,4.225,0,0,0,.126,1.062,2.6,2.6,0,0,0,.378.846,1.772,1.772,0,0,0,.657.567,2.05,2.05,0,0,0,.945.207,2.921,2.921,0,0,0,1.008-.153,3.532,3.532,0,0,0,.738-.369Zm8.766-.216a4.58,4.58,0,0,1-1.467.729,6.422,6.422,0,0,1-1.971.3,3.823,3.823,0,0,1-3.186-1.269A5.456,5.456,0,0,1,48.824-4.5a4.984,4.984,0,0,1,1.134-3.564,4.2,4.2,0,0,1,3.186-1.188,4.954,4.954,0,0,1,1.332.18,3.1,3.1,0,0,1,1.152.594,2.922,2.922,0,0,1,.81,1.116,4.376,4.376,0,0,1,.306,1.746,7.842,7.842,0,0,1-.045.81q-.045.432-.135.9h-5.4a2.637,2.637,0,0,0,.585,1.71,2.242,2.242,0,0,0,1.719.576,3.663,3.663,0,0,0,1.323-.225,3.662,3.662,0,0,0,.891-.459ZM53.108-7.38a1.639,1.639,0,0,0-1.359.549,2.714,2.714,0,0,0-.531,1.467h3.348a2.266,2.266,0,0,0-.3-1.494A1.324,1.324,0,0,0,53.108-7.38Zm9.468,4.9a.672.672,0,0,0-.306-.576,3.686,3.686,0,0,0-.756-.4q-.45-.18-.99-.369a3.719,3.719,0,0,1-.99-.522,2.859,2.859,0,0,1-.756-.846,2.555,2.555,0,0,1-.306-1.323,2.575,2.575,0,0,1,.792-2.034,3.341,3.341,0,0,1,2.286-.7,7.35,7.35,0,0,1,1.854.216,5.364,5.364,0,0,1,1.3.486l-.522,1.692q-.414-.162-1.044-.342a4.63,4.63,0,0,0-1.278-.18q-1.044,0-1.044.81a.6.6,0,0,0,.306.522,4.039,4.039,0,0,0,.756.369q.45.171.99.369a4.3,4.3,0,0,1,.99.513,2.683,2.683,0,0,1,.756.819,2.467,2.467,0,0,1,.306,1.3,2.742,2.742,0,0,1-.873,2.151,3.816,3.816,0,0,1-2.619.783A6.4,6.4,0,0,1,59.633.009a5.512,5.512,0,0,1-1.359-.567L58.922-2.3a6.245,6.245,0,0,0,1.1.459,4.465,4.465,0,0,0,1.4.225,1.557,1.557,0,0,0,.837-.2A.725.725,0,0,0,62.576-2.484Z" transform="translate(737.237 -43.52)" fill="#fff"/><g transform="translate(688 -68)"><path d="M-352-3937a17.889,17.889,0,0,1-7.006-1.414,17.942,17.942,0,0,1-5.721-3.858,17.938,17.938,0,0,1-3.857-5.721A17.888,17.888,0,0,1-370-3955a17.892,17.892,0,0,1,1.414-7.007,17.938,17.938,0,0,1,3.857-5.721,17.941,17.941,0,0,1,5.721-3.858A17.889,17.889,0,0,1-352-3973a17.89,17.89,0,0,1,7.006,1.414,17.943,17.943,0,0,1,5.722,3.858,17.943,17.943,0,0,1,3.858,5.721A17.89,17.89,0,0,1-334-3955a17.887,17.887,0,0,1-1.415,7.006,17.938,17.938,0,0,1-3.858,5.721,17.943,17.943,0,0,1-5.722,3.858A17.89,17.89,0,0,1-352-3937Zm7.265-13.091a2.359,2.359,0,0,0-2.356,2.356,2.359,2.359,0,0,0,2.356,2.357,2.36,2.36,0,0,0,2.357-2.357A2.359,2.359,0,0,0-344.735-3950.091Zm-7.233,0a2.359,2.359,0,0,0-2.356,2.356,2.359,2.359,0,0,0,2.356,2.357,2.36,2.36,0,0,0,2.357-2.357A2.359,2.359,0,0,0-351.968-3950.091Zm-7.034,0a2.359,2.359,0,0,0-2.357,2.356,2.36,2.36,0,0,0,2.357,2.357,2.359,2.359,0,0,0,2.356-2.357A2.359,2.359,0,0,0-359-3950.091Zm14.267-7.035a2.359,2.359,0,0,0-2.356,2.357,2.359,2.359,0,0,0,2.356,2.356,2.359,2.359,0,0,0,2.357-2.356A2.36,2.36,0,0,0-344.735-3957.126Zm-7.233,0a2.359,2.359,0,0,0-2.356,2.357,2.359,2.359,0,0,0,2.356,2.356,2.359,2.359,0,0,0,2.357-2.356A2.36,2.36,0,0,0-351.968-3957.126Zm-7.034,0a2.36,2.36,0,0,0-2.357,2.357,2.359,2.359,0,0,0,2.357,2.356,2.359,2.359,0,0,0,2.356-2.356A2.359,2.359,0,0,0-359-3957.126Zm14.267-7.234a2.359,2.359,0,0,0-2.356,2.357,2.359,2.359,0,0,0,2.356,2.356,2.359,2.359,0,0,0,2.357-2.356A2.36,2.36,0,0,0-344.735-3964.36Zm-7.233,0a2.359,2.359,0,0,0-2.356,2.357,2.359,2.359,0,0,0,2.356,2.356,2.359,2.359,0,0,0,2.357-2.356A2.36,2.36,0,0,0-351.968-3964.36Zm-7.034,0A2.36,2.36,0,0,0-361.36-3962a2.359,2.359,0,0,0,2.357,2.356,2.359,2.359,0,0,0,2.356-2.356A2.359,2.359,0,0,0-359-3964.36Z" transform="translate(370 3973)" fill="#fff"/></g></g></svg>